<?xml version="1.0" standalone="no"?>
<!DOCTYPE svg PUBLIC "-//W3C//DTD SVG 20010904//EN"
 "http://www.w3.org/TR/2001/REC-SVG-20010904/DTD/svg10.dtd">
<svg version="1.0" xmlns="http://www.w3.org/2000/svg"
 width="700.000000pt" height="700.000000pt" viewBox="0 0 700.000000 700.000000"
 preserveAspectRatio="xMidYMid meet">
<metadata>
Created by potrace 1.11, written by Peter Selinger 2001-2013
</metadata>
<g transform="translate(0.000000,700.000000) scale(0.100000,-0.100000)"
fill="#000000" stroke="none">
<path d="M3335 6401 c-298 -75 -507 -341 -508 -646 0 -122 16 -192 70 -305 80
-166 233 -297 411 -350 l72 -22 -2 -247 -3 -246 -755 -5 c-826 -5 -778 -2
-885 -64 -57 -34 -148 -132 -180 -195 -47 -93 -55 -160 -55 -463 l0 -277 -47
-6 c-114 -14 -163 -27 -238 -64 -137 -68 -248 -196 -296 -343 l-24 -73 0 -605
0 -605 23 -67 c51 -146 161 -272 296 -339 79 -39 189 -68 254 -69 l32 0 0
-197 c0 -289 25 -371 149 -493 65 -65 123 -100 210 -126 66 -21 3216 -21 3282
0 169 51 298 182 341 345 13 51 17 111 17 269 l1 202 33 0 c64 1 174 30 253
69 138 69 251 200 297 346 22 69 22 78 22 670 0 592 0 601 -22 670 -46 146
-159 277 -298 346 -75 37 -124 50 -237 64 l-48 6 0 282 c0 313 -7 367 -61 468
-34 63 -115 149 -175 186 -22 12 -68 33 -104 45 -65 22 -68 22 -800 23 l-735
0 -3 246 -2 247 72 22 c114 34 193 83 288 179 135 136 193 276 193 466 1 264
-141 493 -376 607 -137 67 -315 86 -462 49z m1765 -2082 c52 -24 98 -66 123
-113 l22 -41 0 -1586 0 -1586 -30 -48 c-17 -27 -50 -63 -74 -80 l-43 -30
-1598 0 -1598 0 -43 30 c-24 17 -57 53 -74 80 l-30 48 -3 1570 c-1 1028 1
1582 8 1606 20 74 94 142 174 162 17 4 729 6 1581 6 1397 -2 1553 -4 1585 -18z"/>
<path d="M2644 3800 c-259 -38 -447 -243 -461 -505 -10 -162 41 -292 161 -411
109 -108 220 -154 377 -154 253 0 472 178 524 425 18 88 18 132 0 220 -58 277
-326 466 -601 425z m180 -267 c61 -21 121 -77 153 -140 22 -46 27 -71 27 -128
0 -297 -396 -396 -538 -135 -58 106 -44 234 36 325 82 93 198 122 322 78z"/>
<path d="M4210 3800 c-224 -29 -408 -201 -455 -425 -18 -88 -18 -132 0 -220
40 -192 191 -352 384 -409 67 -20 208 -21 276 -2 156 42 285 151 357 301 39
83 42 93 46 196 4 94 1 119 -18 180 -82 254 -331 414 -590 379z m193 -273 c62
-26 130 -102 153 -169 47 -143 -35 -315 -174 -362 -69 -24 -157 -20 -218 8
-149 69 -212 243 -141 389 69 140 230 197 380 134z"/>
<path d="M2540 2214 c-199 -43 -368 -208 -415 -406 -70 -297 113 -593 410
-664 89 -21 1841 -21 1930 1 163 38 300 145 373 291 51 100 67 271 37 384 -38
143 -153 283 -286 349 -125 61 -115 61 -1094 60 -726 0 -902 -3 -955 -15z
m110 -535 l0 -301 -37 6 c-106 19 -202 99 -237 195 -24 68 -19 178 12 237 42
83 156 161 240 163 l22 1 0 -301z m480 1 l0 -300 -115 0 -115 0 0 300 0 300
115 0 115 0 0 -300z m490 0 l0 -300 -120 0 -120 0 0 300 0 300 120 0 120 0 0
-300z m480 0 l0 -300 -115 0 -115 0 0 300 0 300 115 0 115 0 0 -300z m340 283
c62 -20 142 -88 172 -147 31 -59 36 -169 12 -237 -35 -96 -132 -178 -231 -194
l-43 -7 0 301 c0 342 -8 316 90 284z"/>
</g>
</svg>
